<?xml version="1.0" encoding="UTF-8"?>
<svg viewBox="0 0 171.64333 210.6937" xmlns="http://www.w3.org/2000/svg">
 <g transform="translate(-420.44 -418.17)">
  <path d="m575.56 421.92c-10.472 0.2537-23.884 19.711-31.398 46.597-1.7648 6.3146-3.0572 12.541-3.9029 18.457-9.7712-7.3594-21.341-11.63-33.74-11.63-13.099 0-25.276 4.7564-35.381 12.897-0.75014-3.902-1.6761-7.8984-2.8037-11.933-8.2915-29.667-23.758-50.294-34.536-46.048s-12.8 31.756-4.5082 61.423c4.2585 15.237 10.399 28.08 16.838 36.404-1.9228 7.2263 12.194 37.062 12.037 45.044-1.4286 72.47 13.625 45.857 50.497 46.358 35.274 0.4791 51.211 28.254 49.782-44.215-0.20276-10.286 9.7058-44.371 6.5858-53.314 6.9152-8.22 13.641-21.766 18.192-38.049 8.2915-29.667 6.27-57.197-4.5082-61.442-1.0105-0.398-2.0709-0.57467-3.1542-0.54843z" fill="#fff" stroke="#000" stroke-linecap="round" stroke-linejoin="round" stroke-width="7.5"/>
  <path transform="matrix(1 0 0 .63889 315 315.07)" d="m213.57 436.29a21.071 9.6429 0 1 1 -42.143 0 21.071 9.6429 0 1 1 42.143 0z" fill="#050505" stroke="#000" stroke-linecap="round" stroke-linejoin="round" stroke-width="1.8766"/>
  <path transform="matrix(1 0 0 .63889 310 318.26)" d="m220.71 440.22a23.214 7.1429 0 1 1 -46.429 0 23.214 7.1429 0 1 1 46.429 0z" fill="#050505" stroke="#000" stroke-linecap="round" stroke-linejoin="round" stroke-width="1.8766"/>
  <path transform="matrix(2.5 0 0 1 18.929 239.57)" d="m199.29 355.58a4.2857 4.6429 0 1 1 -8.5714 0 4.2857 4.6429 0 1 1 8.5714 0z" fill="#fff" stroke="#000" stroke-linecap="round" stroke-linejoin="round" stroke-width=".94868"/>
  <path transform="matrix(1.359 0 0 -1.2067 254.06 1205)" d="m220.71 566.29a13.929 24.643 0 1 1 -27.857 0 13.929 24.643 0 1 1 27.857 0z" stroke="#000" stroke-linecap="round" stroke-linejoin="round" stroke-width="1.1714"/>
  <path transform="matrix(1 0 0 -1.2067 284.72 1183.9)" d="m252.14 546.65a3.2143 5 0 1 1 -6.4286 0 3.2143 5 0 1 1 6.4286 0z" fill="#fff" stroke="#000" stroke-linecap="round" stroke-linejoin="round" stroke-width="1.3655"/>
  <path transform="matrix(1.08 0 0 1.234 319.61 92.299)" d="m208.57 347.72a8.9286 16.786 0 1 1 -17.857 0 8.9286 16.786 0 1 1 17.857 0z" fill="none" stroke="#fff" stroke-linecap="round" stroke-linejoin="round" stroke-width="4.9374"/>
  <path transform="matrix(.20833 0 0 .31818 461.93 425.73)" d="m351.43 313.79a8.5714 7.8571 0 1 1 -17.143 0 8.5714 7.8571 0 1 1 17.143 0z"/>
  <path transform="matrix(-1.359 0 0 -1.2067 756.3 1206.4)" d="m220.71 566.29a13.929 24.643 0 1 1 -27.857 0 13.929 24.643 0 1 1 27.857 0z" stroke="#000" stroke-linecap="round" stroke-linejoin="round" stroke-width="1.1714"/>
  <path transform="matrix(-1 0 0 -1.2067 725.64 1185.4)" d="m252.14 546.65a3.2143 5 0 1 1 -6.4286 0 3.2143 5 0 1 1 6.4286 0z" fill="#fff" stroke="#000" stroke-linecap="round" stroke-linejoin="round" stroke-width="1.3655"/>
  <path transform="matrix(-1.08 0 0 1.234 690.76 93.727)" d="m208.57 347.72a8.9286 16.786 0 1 1 -17.857 0 8.9286 16.786 0 1 1 17.857 0z" fill="none" stroke="#fff" stroke-linecap="round" stroke-linejoin="round" stroke-width="4.9374"/>
  <path transform="matrix(-.20833 0 0 .31818 548.44 427.16)" d="m351.43 313.79a8.5714 7.8571 0 1 1 -17.143 0 8.5714 7.8571 0 1 1 17.143 0z"/>
  <path transform="matrix(.95254 -.53558 .3044 1.676 191.82 -116.35)" d="m143.36 402.62a5 15.714 0 1 1 -3.8266 -19.963l-0.96005 15.422z" stroke="#000" stroke-linecap="round" stroke-linejoin="round" stroke-width="5.6542"/>
  <path transform="matrix(-.95254 -.53558 -.3044 1.676 819.59 -119.3)" d="m143.36 402.62a5 15.714 0 1 1 -3.8266 -19.963l-0.96005 15.422z" stroke="#000" stroke-linecap="round" stroke-linejoin="round" stroke-width="5.6542"/>
  <g transform="translate(217.86 -14.286)" stroke="#000">
   <path d="m288.22 555.22c-9.2657 0-16.781 8.6355-16.781 19.281 0 3.9921 1.0332 7.7031 2.8438 10.781 0.97846-0.93174 2.2117-1.5 3.5625-1.5 3.1543-1e-5 5.7188 3.0355 5.7188 6.7812 0 0.83011-0.11368 1.6396-0.34375 2.375 1.5765 0.56377 3.2627 0.84375 5 0.84375 1.8543 0 3.6446-0.36141 5.3125-1-0.41523-0.9403-0.6875-1.9903-0.6875-3.125 0-3.7457 2.5645-6.7812 5.7188-6.7812 1.4967 0 2.8872 0.66177 3.9062 1.7812 1.5965-2.951 2.5312-6.4272 2.5312-10.156 0-10.646-7.5156-19.281-16.781-19.281z" stroke-linecap="round" stroke-linejoin="round" stroke-width="1.5"/>
   <path transform="matrix(1 0 0 2.2 123.57 -208.98)" d="m175 352.72a10.357 1.7857 0 1 1 -20.714 0 10.357 1.7857 0 1 1 20.714 0z" fill="#fff" stroke-linecap="round" stroke-linejoin="round" stroke-width="1.0113"/>
   <path d="m289.94 542.79c-6.944 7.0808-2.7776 14.907 0 16.025l2.7776 1.118" fill="none" stroke-width="4"/>
  </g>
 </g>
</svg>
